<?xml version="1.0" encoding="UTF-8" standalone="no"?>
<svg width="22px" height="20px" viewBox="0 0 22 20" version="1.1" xmlns="http://www.w3.org/2000/svg" xmlns:xlink="http://www.w3.org/1999/xlink" xmlns:sketch="http://www.bohemiancoding.com/sketch/ns">
    <!-- Generator: Sketch 3.1.1 (8761) - http://www.bohemiancoding.com/sketch -->
    <title>heart_empty</title>
    <desc>Created with Sketch.</desc>
    <defs></defs>
    <g id="Page-1" stroke="none" stroke-width="1" fill="none" fill-rule="evenodd" sketch:type="MSPage">
        <g id="heart_empty" sketch:type="MSLayerGroup" transform="translate(-17.000000, -19.000000)">
            <path d="M0,0 L56,0 L56,56 L0,56 L0,0 Z" id="Shape" sketch:type="MSShapeGroup"></path>
            <path d="M32.95,19 C31.036,19 29.199,19.8828338 28,21.2724796 C26.801,19.8828338 24.964,19 23.05,19 C19.6565,19 17,21.6321526 17,24.9945504 C17,29.1089918 20.74,32.4713896 26.405,37.5667575 L28,39 L29.595,37.5667575 C35.26,32.4713896 39,29.1089918 39,24.9945504 C39,21.6321526 36.3435,19 32.95,19 L32.95,19 Z M28.1155,35.9536785 L28,36.0572207 L27.8845,35.9536785 C22.654,31.2506812 19.2,28.1444142 19.2,24.9945504 C19.2,22.8201635 20.8555,21.1798365 23.05,21.1798365 C24.744,21.1798365 26.394,22.2643052 26.9715,23.7520436 L29.023,23.7520436 C29.606,22.2643052 31.256,21.1798365 32.95,21.1798365 C35.1445,21.1798365 36.8,22.8201635 36.8,24.9945504 C36.8,28.1444142 33.346,31.2506812 28.1155,35.9536785 L28.1155,35.9536785 Z" id="Shape" fill="#000000" sketch:type="MSShapeGroup"></path>
        </g>
    </g>
</svg>