<?xml version="1.0" encoding="UTF-8" standalone="no"?>
<svg width="18px" height="16px" viewBox="0 0 18 16" version="1.1" xmlns="http://www.w3.org/2000/svg" xmlns:xlink="http://www.w3.org/1999/xlink" xmlns:sketch="http://www.bohemiancoding.com/sketch/ns">
    <!-- Generator: Sketch 3.1.1 (8761) - http://www.bohemiancoding.com/sketch -->
    <title>ic_reply_24px</title>
    <desc>Created with Sketch.</desc>
    <defs></defs>
    <g id="Page-1" stroke="none" stroke-width="1" fill="none" fill-rule="evenodd" sketch:type="MSPage">
        <g id="ic_reply_24px" sketch:type="MSLayerGroup" transform="translate(-3.000000, -5.000000)">
            <path d="M0,0 L24,0 L24,24 L0,24 L0,0 Z" id="Shape" sketch:type="MSShapeGroup"></path>
            <path d="M16.05,5 C14.484,5 12.981,5.70626703 12,6.81798365 C11.019,5.70626703 9.516,5 7.95,5 C5.1735,5 3,7.10572207 3,9.79564033 C3,13.0871935 6.06,15.7771117 10.695,19.853406 L12,21 L13.305,19.853406 C17.94,15.7771117 21,13.0871935 21,9.79564033 C21,7.10572207 18.8265,5 16.05,5 L16.05,5 Z M12.0945,18.5629428 L12,18.6457766 L11.9055,18.5629428 C7.626,14.800545 4.8,12.3155313 4.8,9.79564033 C4.8,8.05613079 6.1545,6.74386921 7.95,6.74386921 C9.336,6.74386921 10.686,7.61144414 11.1585,8.80163488 L12.837,8.80163488 C13.314,7.61144414 14.664,6.74386921 16.05,6.74386921 C17.8455,6.74386921 19.2,8.05613079 19.2,9.79564033 C19.2,12.3155313 16.374,14.800545 12.0945,18.5629428 L12.0945,18.5629428 Z" id="Shape" fill="#000000" sketch:type="MSShapeGroup"></path>
        </g>
    </g>
</svg>