<?xml version="1.0" encoding="UTF-8" standalone="no"?>
<svg width="1272px" height="1240px" viewBox="0 0 1272 1240" version="1.1" xmlns="http://www.w3.org/2000/svg" xmlns:xlink="http://www.w3.org/1999/xlink" xmlns:sketch="http://www.bohemiancoding.com/sketch/ns">
    <!-- Generator: Sketch 3.1.1 (8761) - http://www.bohemiancoding.com/sketch -->
    <title>ic_launcher</title>
    <desc>Created with Sketch.</desc>
    <defs>
        <filter x="-50%" y="-50%" width="200%" height="200%" filterUnits="objectBoundingBox" id="filter-1">
            <feMorphology radius="5" in="SourceAlpha" operator="dilate" result="shadowSpreadOuter1"></feMorphology>
            <feOffset dx="0" dy="5" in="shadowSpreadOuter1" result="shadowOffsetOuter1"></feOffset>
            <feGaussianBlur stdDeviation="15" in="shadowOffsetOuter1" result="shadowBlurOuter1"></feGaussianBlur>
            <feColorMatrix values="0 0 0 0 0   0 0 0 0 0   0 0 0 0 0  0 0 0 0.21 0" in="shadowBlurOuter1" type="matrix" result="shadowMatrixOuter1"></feColorMatrix>
            <feMerge>
                <feMergeNode in="shadowMatrixOuter1"></feMergeNode>
                <feMergeNode in="SourceGraphic"></feMergeNode>
            </feMerge>
        </filter>
        <linearGradient x1="84.0893%" y1="89.3281677%" x2="31.5796909%" y2="30.5530963%" id="linearGradient-2">
            <stop stop-color="#000000" stop-opacity="0.5" offset="0%"></stop>
            <stop stop-color="#000000" offset="100%"></stop>
        </linearGradient>
    </defs>
    <g id="Page-1" stroke="none" stroke-width="1" fill="none" fill-rule="evenodd" sketch:type="MSPage">
        <g id="ic_launcher" sketch:type="MSLayerGroup" transform="translate(-94.000000, -141.000000)">
            <rect id="frame" sketch:type="MSShapeGroup" x="0" y="0" width="1500" height="1500"></rect>
            <path d="M374,665.955779 L374,1344 L1086,1344 L1086,665.321667 L1086,665.321667 L1118.50352,710.058925 L1338.2945,550.371433 L1086,203.11785 L1086,203 L374,203 L374,203.751961 L122.209024,550.312509 L342,710 L374,665.955779 Z" id="Torso" stroke="#979797" fill="#BA68C8" filter="url(#filter-1)" sketch:type="MSShapeGroup"></path>
            <g id="H-Stripes" transform="translate(95.000000, 203.000000)" stroke="#979797" stroke-opacity="0.2" fill="#AB47BC" sketch:type="MSShapeGroup" opacity="0.9">
                <path d="M279,1049 L279,1129 L991,1129 L991,1049 L279,1049 Z" id="H7"></path>
                <path d="M279,889 L279,969 L991,969 L991,889 L279,889 Z" id="H6"></path>
                <path d="M279,729 L279,809 L991,809 L991,729 L279,729 Z" id="H5"></path>
                <path d="M279,569 L279,649 L991,649 L991,569 L279,569 Z" id="H4"></path>
                <path d="M383.357578,409 L112.114572,409 L222.225125,489 L260.077766,489 L279,462.955779 L279,489 L991,489 L991,462.321667 L1010.38294,489 L1048.3595,489 L1158.47005,409 L383.357578,409 Z" id="H3"></path>
                <path d="M362.088063,329 L40.5138402,329 L98.6372424,249 L712.723986,249 L774.368362,249 L1171.82347,249 L1229.94687,329 L362.088063,329 Z" id="H2"></path>
                <path d="M777.889335,169 L741.785687,169 L156.760645,169 L214.884047,89 L696.460204,89 L868.664215,89 L771.209024,159.805341 L777.889335,169 Z" id="H1b"></path>
                <path d="M777.889335,169 L771.209024,159.805341 L868.664215,89 L1055.57666,89 L1113.70006,169 L777.889335,169 Z" id="H1a"></path>
            </g>
            <g id="V-Stripes---Yellow/White" transform="translate(122.000000, 74.000000)" stroke="#979797" stroke-opacity="0.2" sketch:type="MSShapeGroup">
                <path d="M1136,534.7088 L1117,548.513108 L1117,339.704283 L1136,365.85554 L1136,534.7088 Z" id="V21" fill-opacity="0.542147871" fill="#64FFDA"></path>
                <path d="M1166,512.912524 L1147,526.716832 L1147,380.995741 L1166,407.146997 L1166,512.912524 Z" id="V20" fill-opacity="0.4" fill="#CE93D8"></path>
                <path d="M1196,491.116248 L1177,504.920556 L1177,422.287199 L1196,448.438455 L1196,491.116248 Z" id="V19" fill-opacity="0.542147871" fill="#64FFDA"></path>
                <path d="M1016,621.893903 L997,635.698211 L997,174.538453 L1016,200.689709 L1016,621.893903 Z" id="V18" fill-opacity="0.542147871" fill="#64FFDA"></path>
                <path d="M986,621.602069 L967,595.450813 L967,133.246995 L986,159.398252 L986,621.602069 Z" id="V17" fill-opacity="0.4" fill="#CE93D8"></path>
                <path d="M937,1270 L956,1270 L956,129 L937,129 L937,1270 Z" id="V16" fill-opacity="0.542147871" fill="#64FFDA"></path>
                <path d="M817,1270 L836,1270 L836,129 L817,129 L817,1270 Z" id="V15" fill-opacity="0.542147871" fill="#64FFDA"></path>
                <path d="M787,1270 L806,1270 L806,129 L787,129 L787,1270 Z" id="V14" fill-opacity="0.4" fill="#CE93D8"></path>
                <path d="M757,1270 L776,1270 L776,129 L757,129 L757,1270 Z" id="V13" fill-opacity="0.542147871" fill="#64FFDA"></path>
                <path d="M637,1270 L656,1270 L656,129 L637,129 L637,1270 Z" id="V12" fill-opacity="0.542147871" fill="#64FFDA"></path>
                <path d="M607,1270 L626,1270 L626,129 L607,129 L607,1270 Z" id="V11" fill-opacity="0.4" fill="#CE93D8"></path>
                <path d="M577,1270 L596,1270 L596,129 L577,129 L577,1270 Z" id="V10" fill-opacity="0.542147871" fill="#64FFDA"></path>
                <path d="M457,1270 L476,1270 L476,129 L457,129 L457,1270 Z" id="V9" fill-opacity="0.542147871" fill="#64FFDA"></path>
                <path d="M427,1270 L446,1270 L446,129 L427,129 L427,1270 Z" id="V8" fill-opacity="0.4" fill="#CE93D8"></path>
                <path d="M397,1270 L416,1270 L416,129 L397,129 L397,1270 Z" id="V7" fill-opacity="0.542147871" fill="#64FFDA"></path>
                <path d="M277,1270 L296,1270 L296,129 L277,129 L277,1270 Z" id="V6" fill-opacity="0.542147871" fill="#64FFDA"></path>
                <path d="M266,129 L252,129 L252,129.751961 L247,136.633871 L247,598.837688 L247,598.837688 L252,591.955779 L252,591.955779 L252,1270 L266,1270 L266,129 Z" id="V5" fill-opacity="0.4" fill="#CE93D8"></path>
                <path d="M217,633.820372 L220,636 L236,613.977889 L236,151.774072 L217,177.925329 L217,633.820372 Z" id="V4" fill-opacity="0.542147871" fill="#64FFDA"></path>
                <path d="M97,546.635269 L116,560.439577 L116,316.939903 L97,343.091159 L97,546.635269 Z" id="V3" fill-opacity="0.542147871" fill="#64FFDA"></path>
                <path d="M67,524.838993 L86,538.643301 L86,358.23136 L67,384.382617 L67,524.838993 Z" id="V2" fill-opacity="0.4" fill="#CE93D8"></path>
                <path d="M37,503.042717 L56,516.847025 L56,399.522818 L37,425.674074 L37,503.042717 Z" id="V1" fill-opacity="0.542147871" fill="#64FFDA"></path>
            </g>
            <path d="M1086,806.077118 L1086,665.321667 L1086,665.321667 L1118.50352,710.058925 L1338.2945,550.371433 L1086,203.11785 L1086,203 L753.987769,203 L625.898418,213.179706 C625.898418,213.179706 657.438518,344.263632 679.783182,398.434587 C699.198628,445.504136 1005.91676,731.818644 1086,806.077118 L1086,806.077118 Z" id="Shadow" fill-opacity="0.0999999717" fill="url(#linearGradient-2)" sketch:type="MSShapeGroup"></path>
            <g id="Collar---Yellow" transform="translate(553.000000, 142.000000)" sketch:type="MSShapeGroup">
                <path d="M103.421875,62.8945312 L284.941406,62.3105469 L194.181641,219.728516 L103.421875,62.8945312 Z" id="Inside" fill="#63276D"></path>
                <rect id="Rectangle-4" stroke="#979797" fill="#3FA58D" x="65" y="0" width="254" height="63"></rect>
                <path d="M-29.690503,89.8984375 L-4.5240182,143.163235 L223.309497,168.090797 L223.309497,89.8984375 L-29.690503,89.8984375 Z" id="Rectangle-5" stroke-opacity="0.6" stroke="#1476B6" stroke-width="2" fill="#64FFDA" transform="translate(96.809497, 128.898438) rotate(-300.000000) translate(-96.809497, -128.898438) "></path>
                <path d="M164.118994,89.6953125 L189.285479,142.96011 L417.118994,167.887672 L417.118994,89.6953125 L164.118994,89.6953125 Z" id="Rectangle-6" stroke-opacity="0.6" stroke="#1476B6" stroke-width="2" fill="#64FFDA" transform="translate(290.618994, 128.695312) scale(-1, 1) rotate(-300.000000) translate(-290.618994, -128.695312) "></path>
            </g>
        </g>
    </g>
</svg>