<?xml version="1.0" encoding="UTF-8" standalone="no"?>
<svg width="40px" height="40px" viewBox="0 0 40 40" version="1.1" xmlns="http://www.w3.org/2000/svg" xmlns:xlink="http://www.w3.org/1999/xlink" xmlns:sketch="http://www.bohemiancoding.com/sketch/ns">
    <!-- Generator: Sketch 3.1.1 (8761) - http://www.bohemiancoding.com/sketch -->
    <title>ic_launcher_outline</title>
    <desc>Created with Sketch.</desc>
    <defs></defs>
    <g id="Page-1" stroke="none" stroke-width="1" fill="none" fill-rule="evenodd" sketch:type="MSPage">
        <g id="ic_launcher_outline" sketch:type="MSLayerGroup" transform="translate(-4.000000, -4.000000)">
            <rect id="frame" sketch:type="MSShapeGroup" x="0" y="0" width="48" height="48"></rect>
            <path d="M29.462299,6.72571042 L35.3839437,6.72571042 L35.3839437,6.7294816 L43.4573676,17.8415963 L36.4240563,22.951596 L35.3839437,21.5200038 L35.3839437,43.2377104 L12.5999437,43.2377104 L12.5999437,21.5402953 L11.5759437,22.9497104 L4.54263244,17.8397107 L12.5999437,6.74977318 L12.5999437,6.72571042 L19.5884391,6.72571042 L19.5884391,6.72571042 L19.4091937,6.31846042 L20.4079437,4.87663402 L20.4079437,4.77371042 L20.4792386,4.77371042 L20.4826473,4.76878958 L20.4854883,4.77371042 L28.5359437,4.77371042 L28.5359437,4.82292539 L28.5709518,4.76228958 L29.6444054,6.31196042 L29.462299,6.72571042 Z" id="Torso" fill="#FFFFFF" sketch:type="MSShapeGroup"></path>
        </g>
    </g>
</svg>