<?xml version="1.0" encoding="UTF-8" standalone="no"?>
<svg width="56px" height="213px" viewBox="0 0 56 213" version="1.1" xmlns="http://www.w3.org/2000/svg" xmlns:xlink="http://www.w3.org/1999/xlink" xmlns:sketch="http://www.bohemiancoding.com/sketch/ns">
    <!-- Generator: Sketch 3.3.2 (12043) - http://www.bohemiancoding.com/sketch -->
    <title>no_connection</title>
    <desc>Created with Sketch.</desc>
    <defs></defs>
    <g id="Page-1" stroke="none" stroke-width="1" fill="none" fill-rule="evenodd" sketch:type="MSPage">
        <g id="no_connection" sketch:type="MSLayerGroup">
            <path d="M37.6666667,161 L19,161 C15.1266667,161 12,164.126667 12,168 L12,205.333333 C12,209.206667 15.1266667,212.333333 19,212.333333 L37.6666667,212.333333 C41.54,212.333333 44.6666667,209.206667 44.6666667,205.333333 L44.6666667,168 C44.6666667,164.126667 41.54,161 37.6666667,161 L37.6666667,161 Z M40.5833333,200.666667 L16.0833333,200.666667 L16.0833333,168 L40.5833333,168 L40.5833333,200.666667 L40.5833333,200.666667 Z" id="phone" fill="#888888" sketch:type="MSShapeGroup"></path>
            <path id="button" stroke="#333333" stroke-width="4" stroke-linecap="round" sketch:type="MSShapeGroup" d="M24,206.5 C24,206.5 27.6392462,206.449997 28,206.449997 C28.3607538,206.449997 32,206.5 32,206.5"></path>
            <g id="connection" transform="translate(27.000000, 59.000000)" stroke="#888888" stroke-width="4" sketch:type="MSShapeGroup">
                <path d="M1,8 L1,16" id="connection-copy"></path>
                <path d="M1,20 L1,28" id="connection-copy-2"></path>
                <path d="M1,32 L1,40" id="connection-copy-3"></path>
                <path d="M1,44 L1,52" id="connection-copy-4"></path>
                <path d="M1,56 L1,64" id="connection-copy-5"></path>
                <path d="M1,68 L1,76" id="connection-copy-6"></path>
                <path d="M1,80 L1,88" id="connection-copy-7"></path>
                <path d="M1,92 L1,100" id="connection-copy-8"></path>
            </g>
            <path d="M27.6568542,58.6568542 L22,53 L27.6568542,58.6568542 L33.3137085,53 L27.6568542,58.6568542 Z M27.6568542,58.6568542 L33.3137085,64.3137085 L27.6568542,58.6568542 L22,64.3137085 L27.6568542,58.6568542 Z" id="cross" stroke="#888888" stroke-width="4" sketch:type="MSShapeGroup"></path>
            <path d="M45.15,14.0933333 C43.5633333,6.04333333 36.4933333,0 28,0 C21.2566667,0 15.4,3.82666667 12.4833333,9.42666667 C5.46,10.1733333 0,16.1233333 0,23.3333333 C0,31.0566667 6.27666667,37.3333333 14,37.3333333 L44.3333333,37.3333333 C50.7733333,37.3333333 56,32.1066667 56,25.6666667 C56,19.5066667 51.2166667,14.5133333 45.15,14.0933333 L45.15,14.0933333 Z" id="cloud" fill="#888888" sketch:type="MSShapeGroup"></path>
        </g>
    </g>
</svg>